# xmcd
#
# Track frame offsets:
#	150
#	16537
#	35287
#	52537
#	65625
#	83737
#	102262
#	119985
#	138187
#	154312
#	171787
#	186862
#	208200
#	220687
#	234600
#
# Disc length: 3318 seconds
#
# Revision: 1
# Processed by: cddbd v1.4PL0 Copyright (c) Steve Scherf et al.
# Submitted via: audiograbber 1.82.02
#
DISCID=c90cf40f
DTITLE=Ennis Sisters - It's Not About You
DYEAR=2003
DGENRE=Country
TTITLE0=Turn Up The Radio
TTITLE1=Knocks Me Off My Feet
TTITLE2=Somebody Somewhere
TTITLE3=It's Not About You
TTITLE4=I'd Never Walk Away
TTITLE5=All Over Again
TTITLE6=Kiss Him
TTITLE7=If Only
TTITLE8=Without You
TTITLE9=Leaving On My Mind
TTITLE10=October Wind
TTITLE11=So Many Angels
TTITLE12=It's Not About You (Remix)
TTITLE13=I'd Never Walk Away (Remix)
TTITLE14=Without You (Remix)
EXTD=
EXTT0=
EXTT1=
EXTT2=
EXTT3=
EXTT4=
EXTT5=
EXTT6=
EXTT7=
EXTT8=
EXTT9=
EXTT10=
EXTT11=
EXTT12=
EXTT13=
EXTT14=
PLAYORDER=
